# xmcd CD database file
#
# Track frame offsets:
#	150
#	10544
#	19201
#	34253
#	48699
#	62017
#	73109
#	82003
#	93589
#	103574
#	117915
#	131563
#	141321
#	151845
#	164508
#	176930
#	190482
#	203082
#	218324
#	233889
#	251026
#	264080
#	278971
#	291367
#	303899
#	317046
#	327873
#
# Disc length: 4555 seconds
#
# Revision: 0
# Processed by: cddbd v1.5.1PL2 Copyright (c) Steve Scherf et al.
# Submitted via: CDex 1.51
#
DISCID=8c11c91b
DTITLE=Fonotone, Frederick, Maryland - Jug In The Shade - Disc 1
DYEAR=1900
DGENRE=Blues
TTITLE0=Joe Bussard and Oscar Myers - Chinese Breakdown
TTITLE1=Sunny Side Sacred Singers - Power in the Blood
TTITLE2=Blind Thomas - Wanda Russel's Blues
TTITLE3=Danville Dan - Foggy Bottom Suffle
TTITLE4=Tennessee Mess Arounders - I Love You Mama
TTITLE5=Happy Johnnny And Family - Soldier's Joy
TTITLE6=Blue Ridge Partners - Carry Me Back to the Mountains
TTITLE7=W R Barnes And W E Barnes - Fox Chase
TTITLE8=Lucky Chatman's Ozak Mountain Boys - Swing Low, Sweet Chariot
TTITLE9=The Adcock Family - Baker's Breakdown
TTITLE10=Back Alley Boys - Alley Strut
TTITLE11=Lee Moore - Boweavil
TTITLE12=Bluegrass Travelers - Bugle Call Banjo
TTITLE13=Tennessee Mess Arounders - Tator Patch Blues
TTITLE14=Milo Way - We Need More Rattlesnakes
TTITLE15=Jolly Joe's Jug Band- Jug in the Shade
TTITLE16=Welch Brothers - Lost Indian
TTITLE17=Jolly Joe's Jug Band- Love Old Memphis
TTITLE18=B Sam Firk - Old Country Rock
TTITLE19=Bob Coltman And Joe Bussard - The Death of John Kennedy
TTITLE20=Three Blues Boys - Onions
TTITLE21=Blind Thomas - Pint Brush Blues
TTITLE22=Welch Brothers - Helter Skelter
TTITLE23=Mississippi Swampers - Green Blues
TTITLE24=Georgia Jokers - Hannah Open the Door
TTITLE25=Hillbilly Boys - Wild Wood Flower
TTITLE26=Whitacre Family - Down on the Delaware
EXTD=
EXTT0=
EXTT1=
EXTT2=
EXTT3=
EXTT4=
EXTT5=
EXTT6=
EXTT7=
EXTT8=
EXTT9=
EXTT10=
EXTT11=
EXTT12=
EXTT13=
EXTT14=
EXTT15=
EXTT16=
EXTT17=
EXTT18=
EXTT19=
EXTT20=
EXTT21=
EXTT22=
EXTT23=
EXTT24=
EXTT25=
EXTT26=
PLAYORDER=
